<svg width="100" height="100" viewBox="0 0 100 100" fill="none" xmlns="http://www.w3.org/2000/svg">
<circle cx="50" cy="50" r="50" fill="#C5EBF7"/>
<path d="M67.9099 70V65.5555C67.9099 63.198 66.7606 60.9371 64.7147 59.2701C62.6688 57.6031 59.8939 56.6666 57.0006 56.6666H37.9093C35.016 56.6666 32.2412 57.6031 30.1953 59.2701C28.1494 60.9371 27 63.198 27 65.5555V70" stroke="#44A7C4" stroke-width="2" stroke-linecap="round" stroke-linejoin="round"/>
<path d="M47.4542 47.7778C53.4793 47.7778 58.3636 43.7981 58.3636 38.8889C58.3636 33.9797 53.4793 30 47.4542 30C41.4292 30 36.5449 33.9797 36.5449 38.8889C36.5449 43.7981 41.4292 47.7778 47.4542 47.7778Z" stroke="#44A7C4" stroke-width="2" stroke-linecap="round" stroke-linejoin="round"/>
<path d="M70.6359 47.7777L76.0906 52.2221L86.9999 43.3333" stroke="#44A7C4" stroke-width="2" stroke-linecap="round" stroke-linejoin="round"/>
</svg>
