<svg width="100" height="100" viewBox="0 0 100 100" fill="none" xmlns="http://www.w3.org/2000/svg">
<circle cx="50" cy="50" r="50" fill="#B1FBED"/>
<path d="M70.2701 68.7858V64.1615C70.2701 61.7086 69.1311 59.3562 67.1037 57.6217C65.0763 55.8873 62.3265 54.9128 59.4593 54.9128H37.8377C34.9705 54.9128 32.2207 55.8873 30.1933 57.6217C28.1658 59.3562 27.0269 61.7086 27.0269 64.1615V68.7858" stroke="#52BABA" stroke-width="2" stroke-linecap="round" stroke-linejoin="round"/>
<path d="M48.6487 45.664C54.6193 45.664 59.4595 41.5232 59.4595 36.4153C59.4595 31.3074 54.6193 27.1666 48.6487 27.1666C42.6781 27.1666 37.8379 31.3074 37.8379 36.4153C37.8379 41.5232 42.6781 45.664 48.6487 45.664Z" stroke="#52BABA" stroke-width="2" stroke-linecap="round" stroke-linejoin="round"/>
</svg>
