<svg width="100" height="100" viewBox="0 0 100 100" fill="none" xmlns="http://www.w3.org/2000/svg">
<circle cx="50" cy="50" r="50" fill="#EFD0A1"/>
<path d="M56.7412 59.2954C56.7412 57.9119 56.2529 56.854 55.2764 56.1216C54.2998 55.3729 52.542 54.5916 50.0029 53.7778C47.4639 52.9478 45.4538 52.134 43.9727 51.3364C39.9362 49.1554 37.918 46.2176 37.918 42.5229C37.918 40.6024 38.4551 38.8934 39.5293 37.396C40.6198 35.8823 42.1742 34.7023 44.1924 33.856C46.2269 33.0096 48.5055 32.5864 51.0283 32.5864C53.5674 32.5864 55.8298 33.0503 57.8154 33.978C59.8011 34.8895 61.3392 36.1834 62.4297 37.8599C63.5365 39.5363 64.0898 41.4406 64.0898 43.5728H56.7656C56.7656 41.9451 56.2529 40.6838 55.2275 39.7886C54.2021 38.8771 52.7617 38.4214 50.9062 38.4214C49.1159 38.4214 47.7243 38.8039 46.7314 39.5688C45.7386 40.3175 45.2422 41.3104 45.2422 42.5474C45.2422 43.703 45.82 44.6714 46.9756 45.4526C48.1475 46.2339 49.8646 46.9663 52.127 47.6499C56.2936 48.9032 59.3291 50.4575 61.2334 52.313C63.1377 54.1685 64.0898 56.4797 64.0898 59.2466C64.0898 62.3228 62.9261 64.7397 60.5986 66.4976C58.2712 68.2391 55.138 69.1099 51.1992 69.1099C48.4648 69.1099 45.9746 68.6134 43.7285 67.6206C41.4824 66.6115 39.7653 65.2362 38.5771 63.4946C37.4053 61.7531 36.8193 59.7349 36.8193 57.4399H44.168C44.168 61.3625 46.5117 63.3237 51.1992 63.3237C52.9408 63.3237 54.2998 62.9738 55.2764 62.2739C56.2529 61.5578 56.7412 60.5649 56.7412 59.2954Z" fill="#AD6F12"/>
</svg>
