<svg width="286" height="187" viewBox="0 0 286 187" fill="none" xmlns="http://www.w3.org/2000/svg">
<rect x="102.245" y="7.5" width="74.5109" height="101.658" rx="37.2554" stroke="#3690DA" stroke-width="15"/>
<circle cx="139.5" cy="118.859" r="67.5" fill="#3690DA"/>
<circle cx="139.5" cy="118.859" r="48.4239" fill="#2B688F"/>
<path d="M133.851 125.852C130.684 124.461 128.089 122.016 126.503 118.927C124.918 115.838 124.437 112.293 125.143 108.89C125.849 105.486 127.699 102.431 130.38 100.238C133.061 98.0451 136.411 96.8479 139.867 96.8479C143.322 96.8479 146.672 98.0451 149.354 100.238C152.035 102.431 153.884 105.486 154.59 108.89C155.296 112.293 154.816 115.838 153.23 118.927C151.645 122.016 149.05 124.461 145.883 125.852V145.272H133.851V125.852Z" fill="#3C3D3F"/>
<rect x="42" y="153" width="14" height="14" fill="#F1AF33"/>
<rect x="1" y="63" width="14" height="14" fill="#F1AF33"/>
<rect x="219" y="132" width="14" height="14" fill="#F1AF33"/>
<rect x="272" y="51" width="14" height="14" fill="#F1AF33"/>
<circle cx="6" cy="127" r="6" fill="#E87ECA"/>
<circle cx="62" cy="66" r="6" fill="#E87ECA"/>
<circle cx="246" cy="97" r="6" fill="#E87ECA"/>
<circle cx="266" cy="145" r="6" fill="#E87ECA"/>
<path d="M42 103L44.0206 109.219H50.5595L45.2694 113.062L47.2901 119.281L42 115.438L36.7099 119.281L38.7306 113.062L33.4405 109.219H39.9794L42 103Z" fill="#7367F0"/>
<path d="M224 42L226.021 48.2188H232.56L227.269 52.0623L229.29 58.2812L224 54.4377L218.71 58.2812L220.731 52.0623L215.44 48.2188H221.979L224 42Z" fill="#7367F0"/>
</svg>
