<svg width="37" height="37" viewBox="0 0 37 37" fill="none" xmlns="http://www.w3.org/2000/svg">
<path d="M26.2083 3.0835H10.7916C6.53439 3.0835 3.08325 6.53463 3.08325 10.7918V26.2085C3.08325 30.4657 6.53439 33.9168 10.7916 33.9168H26.2083C30.4654 33.9168 33.9166 30.4657 33.9166 26.2085V10.7918C33.9166 6.53463 30.4654 3.0835 26.2083 3.0835Z" stroke="white" stroke-width="3" stroke-linecap="round" stroke-linejoin="round"/>
<path d="M24.6665 17.5287C24.8568 18.8118 24.6376 20.1221 24.0403 21.2735C23.4429 22.4248 22.4976 23.3584 21.339 23.9416C20.1805 24.5247 18.8675 24.7277 17.5869 24.5216C16.3063 24.3156 15.1233 23.7109 14.2061 22.7938C13.2889 21.8766 12.6843 20.6936 12.4782 19.413C12.2722 18.1324 12.4751 16.8194 13.0583 15.6608C13.6414 14.5022 14.5751 13.557 15.7264 12.9596C16.8777 12.3622 18.1881 12.1431 19.4711 12.3333C20.7799 12.5274 21.9915 13.1372 22.9271 14.0728C23.8626 15.0083 24.4725 16.22 24.6665 17.5287Z" stroke="white" stroke-width="3" stroke-linecap="round" stroke-linejoin="round"/>
<path d="M26.9792 10.021H26.9947" stroke="white" stroke-width="3" stroke-linecap="round" stroke-linejoin="round"/>
</svg>
