<svg width="37" height="37" viewBox="0 0 37 37" fill="none" xmlns="http://www.w3.org/2000/svg">
<path d="M15.4167 20.0415C16.0788 20.9266 16.9235 21.6589 17.8935 22.1889C18.8635 22.7189 19.9362 23.034 21.0387 23.113C22.1412 23.1919 23.2478 23.0329 24.2834 22.6465C25.319 22.2602 26.2595 21.6557 27.0409 20.874L31.6659 16.249C33.0701 14.7951 33.847 12.848 33.8294 10.8269C33.8119 8.8058 33.0012 6.87245 31.572 5.44327C30.1428 4.01408 28.2095 3.2034 26.1884 3.18584C24.1673 3.16828 22.2201 3.94523 20.7663 5.34937L18.1147 7.98562" stroke="white" stroke-width="3" stroke-linecap="round" stroke-linejoin="round"/>
<path d="M21.5834 16.9584C20.9213 16.0733 20.0766 15.3409 19.1066 14.8109C18.1366 14.281 17.064 13.9658 15.9615 13.8869C14.859 13.8079 13.7524 13.967 12.7167 14.3533C11.6811 14.7396 10.7407 15.3442 9.95923 16.1259L5.33423 20.7509C3.9301 22.2047 3.15314 24.1518 3.1707 26.1729C3.18826 28.194 3.99894 30.1274 5.42813 31.5566C6.85732 32.9858 8.79066 33.7964 10.8118 33.814C12.8329 33.8316 14.78 33.0546 16.2338 31.6505L18.8701 29.0142" stroke="white" stroke-width="3" stroke-linecap="round" stroke-linejoin="round"/>
</svg>
