<svg width="37" height="37" viewBox="0 0 37 37" fill="none" xmlns="http://www.w3.org/2000/svg">
<path d="M35.4584 4.62488C33.9821 5.66624 32.3475 6.46271 30.6176 6.98363C29.6891 5.91604 28.4551 5.15936 27.0826 4.81593C25.71 4.4725 24.2651 4.55889 22.9433 5.06341C21.6214 5.56793 20.4864 6.46625 19.6918 7.63686C18.8971 8.80747 18.4811 10.1939 18.5001 11.6086V13.1503C15.7908 13.2205 13.1062 12.6197 10.6854 11.4012C8.26456 10.1827 6.18265 8.38444 4.62508 6.16654C4.62508 6.16654 -1.54158 20.0415 12.3334 26.2082C9.15839 28.3634 5.37611 29.4441 1.54175 29.2915C15.4167 36.9999 32.3751 29.2915 32.3751 11.5624C32.3737 11.133 32.3324 10.7046 32.2517 10.2828C33.8252 8.7311 34.9355 6.77198 35.4584 4.62488V4.62488Z" stroke="white" stroke-width="3" stroke-linecap="round" stroke-linejoin="round"/>
</svg>
