<svg width="100" height="100" viewBox="0 0 100 100" fill="none" xmlns="http://www.w3.org/2000/svg">
<circle cx="50" cy="50" r="50" fill="#B1FBED"/>
<path d="M70.2701 68.7851V64.1608C70.2701 61.7079 69.1311 59.3554 67.1037 57.621C65.0763 55.8865 62.3265 54.9121 59.4593 54.9121H37.8377C34.9705 54.9121 32.2207 55.8865 30.1933 57.621C28.1658 59.3554 27.0269 61.7079 27.0269 64.1608V68.7851" stroke="#52BABA" stroke-width="2" stroke-linecap="round" stroke-linejoin="round"/>
<path d="M48.6487 45.6634C54.6193 45.6634 59.4595 41.5226 59.4595 36.4147C59.4595 31.3068 54.6193 27.166 48.6487 27.166C42.6781 27.166 37.8379 31.3068 37.8379 36.4147C37.8379 41.5226 42.6781 45.6634 48.6487 45.6634Z" stroke="#52BABA" stroke-width="2" stroke-linecap="round" stroke-linejoin="round"/>
</svg>
