<svg width="100" height="100" viewBox="0 0 100 100" fill="none" xmlns="http://www.w3.org/2000/svg">
<circle cx="50" cy="50" r="50" fill="#EFD0A1"/>
<path d="M56.7412 59.2949C56.7412 57.9115 56.2529 56.8535 55.2764 56.1211C54.2998 55.3724 52.542 54.5911 50.0029 53.7773C47.4639 52.9473 45.4538 52.1335 43.9727 51.3359C39.9362 49.1549 37.918 46.2171 37.918 42.5225C37.918 40.6019 38.4551 38.8929 39.5293 37.3955C40.6198 35.8818 42.1742 34.7018 44.1924 33.8555C46.2269 33.0091 48.5055 32.5859 51.0283 32.5859C53.5674 32.5859 55.8298 33.0498 57.8154 33.9775C59.8011 34.889 61.3392 36.1829 62.4297 37.8594C63.5365 39.5358 64.0898 41.4401 64.0898 43.5723H56.7656C56.7656 41.9447 56.2529 40.6833 55.2275 39.7881C54.2021 38.8766 52.7617 38.4209 50.9062 38.4209C49.1159 38.4209 47.7243 38.8034 46.7314 39.5684C45.7386 40.3171 45.2422 41.3099 45.2422 42.5469C45.2422 43.7025 45.82 44.6709 46.9756 45.4521C48.1475 46.2334 49.8646 46.9658 52.127 47.6494C56.2936 48.9027 59.3291 50.457 61.2334 52.3125C63.1377 54.168 64.0898 56.4792 64.0898 59.2461C64.0898 62.3223 62.9261 64.7393 60.5986 66.4971C58.2712 68.2386 55.138 69.1094 51.1992 69.1094C48.4648 69.1094 45.9746 68.613 43.7285 67.6201C41.4824 66.611 39.7653 65.2357 38.5771 63.4941C37.4053 61.7526 36.8193 59.7344 36.8193 57.4395H44.168C44.168 61.362 46.5117 63.3232 51.1992 63.3232C52.9408 63.3232 54.2998 62.9733 55.2764 62.2734C56.2529 61.5573 56.7412 60.5645 56.7412 59.2949Z" fill="#AD6F12"/>
</svg>
