<svg width="111" height="100" viewBox="0 0 111 100" fill="none" xmlns="http://www.w3.org/2000/svg">
<ellipse cx="55.114" cy="50" rx="55.114" ry="50" fill="#F2C0F3"/>
<path d="M77.4572 68.7858V64.1615C77.4572 61.7086 76.2017 59.3562 73.9669 57.6217C71.7321 55.8873 68.7011 54.9128 65.5406 54.9128H41.7076C38.5471 54.9128 35.5161 55.8873 33.2813 57.6217C31.0465 59.3562 29.791 61.7086 29.791 64.1615V68.7858" stroke="#836D84" stroke-width="2" stroke-linecap="round" stroke-linejoin="round"/>
<path d="M53.6245 45.6641C60.2059 45.6641 65.5411 41.5234 65.5411 36.4154C65.5411 31.3075 60.2059 27.1667 53.6245 27.1667C47.0432 27.1667 41.708 31.3075 41.708 36.4154C41.708 41.5234 47.0432 45.6641 53.6245 45.6641Z" stroke="#836D84" stroke-width="2" stroke-linecap="round" stroke-linejoin="round"/>
</svg>
