<svg width="100" height="100" viewBox="0 0 100 100" fill="none" xmlns="http://www.w3.org/2000/svg">
<circle cx="50" cy="50" r="50" fill="#BBE7FF"/>
<path d="M48.083 69H64.4128" stroke="#459ECF" stroke-width="2" stroke-linecap="round" stroke-linejoin="round"/>
<path d="M56.2476 36C56.9694 35.2043 57.9484 34.7573 58.9693 34.7573C59.4747 34.7573 59.9752 34.8671 60.4422 35.0803C60.9092 35.2935 61.3335 35.606 61.6909 36C62.0483 36.3939 62.3318 36.8616 62.5252 37.3764C62.7187 37.8911 62.8182 38.4428 62.8182 39C62.8182 39.5571 62.7187 40.1088 62.5252 40.6236C62.3318 41.1383 62.0483 41.606 61.6909 42L39.0106 67L31.7529 69L33.5674 61L56.2476 36Z" stroke="#459ECF" stroke-width="2" stroke-linecap="round" stroke-linejoin="round"/>
</svg>
