<svg width="111" height="100" viewBox="0 0 111 100" fill="none" xmlns="http://www.w3.org/2000/svg">
<ellipse cx="55.114" cy="50" rx="55.114" ry="50" fill="#FDF1EB"/>
<path d="M60.75 25.9167H39.75C38.3576 25.9167 37.0223 26.4348 36.0377 27.3568C35.0531 28.2789 34.5 29.5294 34.5 30.8334V70.1668C34.5 71.4707 35.0531 72.7213 36.0377 73.6434C37.0223 74.5654 38.3576 75.0834 39.75 75.0834H71.25C72.6424 75.0834 73.9777 74.5654 74.9623 73.6434C75.9469 72.7213 76.5 71.4707 76.5 70.1668V40.6667L60.75 25.9167Z" stroke="#E4B9A3" stroke-width="2" stroke-linecap="round" stroke-linejoin="round"/>
<path d="M60.75 25.9167V40.6667H76.5" stroke="#E4B9A3" stroke-width="2" stroke-linecap="round" stroke-linejoin="round"/>
<path d="M66 52.9583H45" stroke="#E4B9A3" stroke-width="2" stroke-linecap="round" stroke-linejoin="round"/>
<path d="M66 62.7917H45" stroke="#E4B9A3" stroke-width="2" stroke-linecap="round" stroke-linejoin="round"/>
<path d="M50.25 43.125H47.625H45" stroke="#E4B9A3" stroke-width="2" stroke-linecap="round" stroke-linejoin="round"/>
</svg>
