<svg width="113" height="124" viewBox="0 0 113 124" fill="none" xmlns="http://www.w3.org/2000/svg">
<path d="M21.145 2.5H70.6873L71.502 73.3881L53.3684 89.5665H39.5667L21.145 73.3659V2.5Z" stroke="#8AD4DF" stroke-width="5"/>
<path fill-rule="evenodd" clip-rule="evenodd" d="M92.0931 57.1948C92.0931 57.1702 92.0904 57.1456 92.0895 57.1204C92.0852 57.0082 92.0742 56.8965 92.0568 56.7863C92.0522 56.76 92.0494 56.7331 92.0443 56.7061C92.0203 56.5813 91.988 56.4592 91.9476 56.3412C91.9384 56.3142 91.9283 56.2879 91.9177 56.261C91.8721 56.1368 91.8177 56.0179 91.7551 55.9057L91.7528 55.9012C91.7496 55.8954 91.7459 55.8926 91.7432 55.8874C91.681 55.782 91.6117 55.6835 91.536 55.5929C91.5185 55.5723 91.5023 55.5505 91.4853 55.531C91.4193 55.456 91.3489 55.3871 91.2749 55.3248L73.45 40.7614V46.7352L87.009 57.2945L53.4952 87.0239H38.5998L5.08641 57.2945L18.645 46.0324V40.0586L0.820106 55.3248C0.746189 55.3871 0.676012 55.4561 0.61013 55.531C0.592632 55.5505 0.576054 55.5723 0.559477 55.5929C0.483725 55.6835 0.414396 55.782 0.352263 55.8874C0.34904 55.8926 0.344896 55.896 0.342133 55.9012L0.339831 55.9057C0.277284 56.0179 0.222886 56.1368 0.177283 56.261C0.166692 56.2879 0.156561 56.3142 0.147352 56.3412C0.106959 56.4594 0.0746132 56.5817 0.0506525 56.7067C0.0451268 56.7331 0.0428242 56.76 0.0382195 56.7869C0.0209071 56.8969 0.0101336 57.0084 0.0059864 57.1204C0.00460497 57.1456 0.00184202 57.1702 0.00138154 57.1948C0.00138154 57.2074 0 57.2195 0 57.2315V116.816C0.00158453 118.639 0.584263 120.387 1.62019 121.676C2.65612 122.965 4.06068 123.69 5.5257 123.692H86.5693C88.0343 123.69 89.4389 122.965 90.4748 121.676C91.5107 120.387 92.0934 118.639 92.095 116.816V57.2315C92.095 57.2195 92.0936 57.2074 92.0931 57.1948ZM57.2674 89.3071L88.4112 116.678V61.6803L57.2674 89.3071ZM34.8276 89.3065L3.6838 61.6797V116.679L34.8276 89.3065ZM53.4998 91.6074H38.5952L7.30451 119.108H84.7909L53.4998 91.6074Z" fill="#6A82A9"/>
<ellipse cx="88.9875" cy="72.1822" rx="24.0125" ry="27.0943" fill="white"/>
<g clip-path="url(#clip0)">
<path d="M104.242 70.8877V72.5006C104.241 76.2812 103.156 79.9598 101.149 82.9877C99.1433 86.0157 96.3234 88.2309 93.1104 89.3028C89.8973 90.3747 86.4633 90.246 83.3204 88.9358C80.1774 87.6256 77.4941 85.2042 75.6704 82.0327C73.8468 78.8612 72.9806 75.1095 73.2011 71.3371C73.4216 67.5647 74.7168 63.9738 76.8937 61.1C79.0707 58.2261 82.0126 56.2232 85.2807 55.39C88.5489 54.5569 91.9682 54.9381 95.0287 56.4767" stroke="#DAB87C" stroke-width="5" stroke-linecap="round" stroke-linejoin="round"/>
<path d="M104.242 58.4756L88.7049 76.0247L84.0436 70.7652" stroke="#DAB87C" stroke-width="5" stroke-linecap="round" stroke-linejoin="round"/>
</g>
<defs>
<clipPath id="clip0">
<rect width="37.29" height="42.0759" fill="white" transform="translate(70.0599 51.4629)"/>
</clipPath>
</defs>
</svg>
