<svg width="25" height="25" viewBox="0 0 25 25" fill="none" xmlns="http://www.w3.org/2000/svg">
<path d="M17.0207 2.00293H7.00853C4.24374 2.00293 2.00244 4.24423 2.00244 7.00902V17.0212C2.00244 19.786 4.24374 22.0273 7.00853 22.0273H17.0207C19.7855 22.0273 22.0268 19.786 22.0268 17.0212V7.00902C22.0268 4.24423 19.7855 2.00293 17.0207 2.00293Z" stroke="white" stroke-width="3" stroke-linecap="round" stroke-linejoin="round"/>
<path d="M16.0194 11.3842C16.143 12.2175 16.0006 13.0685 15.6127 13.8162C15.2247 14.5639 14.6108 15.1702 13.8584 15.549C13.106 15.9277 12.2533 16.0595 11.4216 15.9257C10.5899 15.7919 9.82163 15.3992 9.22598 14.8035C8.63034 14.2079 8.23767 13.4396 8.10385 12.6079C7.97002 11.7763 8.10184 10.9236 8.48056 10.1711C8.85928 9.41869 9.46562 8.80483 10.2133 8.41686C10.961 8.02888 11.812 7.88656 12.6453 8.01012C13.4953 8.13616 14.2821 8.53222 14.8897 9.1398C15.4973 9.74738 15.8934 10.5343 16.0194 11.3842Z" stroke="white" stroke-width="3" stroke-linecap="round" stroke-linejoin="round"/>
<path d="M17.5212 6.50781H17.5308" stroke="white" stroke-width="3" stroke-linecap="round" stroke-linejoin="round"/>
</svg>
