<svg width="25" height="25" viewBox="0 0 25 25" fill="none" xmlns="http://www.w3.org/2000/svg">
<g clip-path="url(#clip0)">
<path d="M10.9829 13.0162C11.4129 13.591 11.9615 14.0667 12.5914 14.4108C13.2214 14.755 13.918 14.9597 14.634 15.011C15.35 15.0623 16.0687 14.9589 16.7413 14.7081C17.4138 14.4572 18.0246 14.0646 18.5321 13.5569L21.5357 10.5532C22.4476 9.60906 22.9522 8.34451 22.9408 7.03193C22.9294 5.71935 22.4029 4.46376 21.4748 3.53559C20.5466 2.60742 19.291 2.08093 17.9784 2.06953C16.6658 2.05812 15.4013 2.5627 14.4571 3.4746L12.735 5.18669" stroke="white" stroke-width="3" stroke-linecap="round" stroke-linejoin="round"/>
<path d="M14.9876 11.0134C14.5577 10.4386 14.0091 9.96295 13.3791 9.61877C12.7492 9.2746 12.0526 9.06993 11.3366 9.01865C10.6205 8.96737 9.90187 9.07068 9.22929 9.32157C8.55672 9.57246 7.94596 9.96506 7.43846 10.4728L4.43481 13.4764C3.52291 14.4206 3.01832 15.6851 3.02973 16.9977C3.04114 18.3103 3.56762 19.5659 4.49579 20.494C5.42396 21.4222 6.67955 21.9487 7.99213 21.9601C9.30471 21.9715 10.5693 21.4669 11.5134 20.555L13.2255 18.8429" stroke="white" stroke-width="3" stroke-linecap="round" stroke-linejoin="round"/>
</g>
<defs>
<clipPath id="clip0">
<rect width="24.0292" height="24.0292" fill="white" transform="translate(0.970703)"/>
</clipPath>
</defs>
</svg>
