<svg width="13" height="16" viewBox="0 0 13 16" fill="none" xmlns="http://www.w3.org/2000/svg">
<path d="M12.25 6.625C12.25 11 6.625 14.75 6.625 14.75C6.625 14.75 1 11 1 6.625C1 5.13316 1.59263 3.70242 2.64752 2.64752C3.70242 1.59263 5.13316 1 6.625 1C8.11684 1 9.54758 1.59263 10.6025 2.64752C11.6574 3.70242 12.25 5.13316 12.25 6.625Z" stroke="white" stroke-linecap="round" stroke-linejoin="round"/>
<path d="M6.625 8.5C7.66053 8.5 8.5 7.66053 8.5 6.625C8.5 5.58947 7.66053 4.75 6.625 4.75C5.58947 4.75 4.75 5.58947 4.75 6.625C4.75 7.66053 5.58947 8.5 6.625 8.5Z" stroke="white" stroke-linecap="round" stroke-linejoin="round"/>
</svg>
