<svg width="25" height="25" viewBox="0 0 25 25" fill="none" xmlns="http://www.w3.org/2000/svg">
<g clip-path="url(#clip0)">
<path d="M23.5134 3.00323C22.5546 3.67953 21.493 4.19679 20.3695 4.5351C19.7665 3.84176 18.9652 3.35035 18.0738 3.12731C17.1824 2.90427 16.244 2.96038 15.3856 3.28803C14.5271 3.61569 13.79 4.19909 13.2739 4.95933C12.7578 5.71957 12.4876 6.61997 12.5 7.53875V8.53996C10.7405 8.58559 8.99698 8.19536 7.4248 7.40403C5.85263 6.6127 4.50056 5.44484 3.48901 4.00445C3.48901 4.00445 -0.515863 13.0154 8.4951 17.0203C6.43312 18.4199 3.97676 19.1218 1.48657 19.0227C10.4975 24.0288 21.5109 19.0227 21.5109 7.50871C21.51 7.22983 21.4832 6.95163 21.4308 6.6777C22.4527 5.66997 23.1738 4.39764 23.5134 3.00323V3.00323Z" stroke="white" stroke-width="3" stroke-linecap="round" stroke-linejoin="round"/>
</g>
<defs>
<clipPath id="clip0">
<rect width="24.0292" height="24.0292" fill="white" transform="translate(0.485352)"/>
</clipPath>
</defs>
</svg>
