<svg width="25" height="25" viewBox="0 0 25 25" fill="none" xmlns="http://www.w3.org/2000/svg">
<g clip-path="url(#clip0)">
<path d="M23.2956 6.42783C23.1766 5.95266 22.9344 5.51729 22.5934 5.1657C22.2523 4.81411 21.8245 4.55874 21.3532 4.42539C19.6311 4.00488 12.7427 4.00488 12.7427 4.00488C12.7427 4.00488 5.85435 4.00488 4.13225 4.46544C3.66093 4.59879 3.23314 4.85416 2.89209 5.20575C2.55105 5.55734 2.30883 5.99271 2.18989 6.46788C1.87472 8.21556 1.72056 9.98847 1.72933 11.7643C1.7181 13.5535 1.87227 15.34 2.18989 17.1008C2.32101 17.5612 2.56866 17.98 2.90891 18.3168C3.24916 18.6535 3.67051 18.8968 4.13225 19.0231C5.85435 19.4837 12.7427 19.4837 12.7427 19.4837C12.7427 19.4837 19.6311 19.4837 21.3532 19.0231C21.8245 18.8898 22.2523 18.6344 22.5934 18.2828C22.9344 17.9312 23.1766 17.4959 23.2956 17.0207C23.6083 15.2862 23.7625 13.5268 23.7561 11.7643C23.7674 9.9751 23.6132 8.18867 23.2956 6.42783V6.42783Z" stroke="white" stroke-width="3" stroke-linecap="round" stroke-linejoin="round"/>
<path d="M10.49 15.0382L16.247 11.7642L10.49 8.49023V15.0382Z" stroke="white" stroke-width="3" stroke-linecap="round" stroke-linejoin="round"/>
</g>
<defs>
<clipPath id="clip0">
<rect width="24.0292" height="24.0292" fill="white" transform="translate(0.728027)"/>
</clipPath>
</defs>
</svg>
