<svg width="91" height="91" viewBox="0 0 91 91" fill="none" xmlns="http://www.w3.org/2000/svg">
<path d="M73.754 25.1418V40.7292M73.754 40.7292H58.1665M73.754 40.7292L61.6996 29.4023C58.9075 26.6088 55.4533 24.5682 51.6592 23.4707C47.8651 22.3733 43.8549 22.2548 40.0027 23.1265C36.1504 23.9981 32.5818 25.8313 29.6297 28.4552C26.6776 31.079 23.1207 38.1313 23.1207 38.1313M16.6 66.7082V51.1208M16.6 51.1208H32.1874M16.6 51.1208L28.6543 62.4477C31.4464 65.2412 34.9006 67.2818 38.6947 68.3793C42.4888 69.4767 46.499 69.5952 50.3512 68.7235C54.2035 67.8519 57.7721 66.0187 60.7242 63.3948C63.6763 60.771 65.9156 57.4421 67.2332 53.7187M88 45.5C88 68.9721 68.9721 88 45.5 88C22.0279 88 3 68.9721 3 45.5C3 22.0279 22.0279 3 45.5 3C68.9721 3 88 22.0279 88 45.5Z" stroke="black" stroke-width="4.16667" stroke-linecap="round" stroke-linejoin="round"/>
</svg>
